<svg xmlns="http://www.w3.org/2000/svg" width="1280" height="640" viewBox="0 0 1280 640" role="img" aria-labelledby="title desc">
  <title id="title">VEMO_SKILLS social preview</title>
  <desc id="desc">A repository preview card for the public VEMO_SKILLS skill hub.</desc>
  <defs>
    <linearGradient id="panel" x1="0" y1="0" x2="1" y2="1">
      <stop offset="0" stop-color="#1D4ED8"/>
      <stop offset="0.55" stop-color="#0F766E"/>
      <stop offset="1" stop-color="#16A34A"/>
    </linearGradient>
  </defs>
  <rect width="1280" height="640" fill="#F8FAFC"/>
  <rect x="70" y="70" width="1140" height="500" rx="42" fill="url(#panel)"/>
  <g transform="translate(116 150)">
    <rect x="0" y="0" width="170" height="170" rx="36" fill="#F8FAFC" opacity="0.98"/>
    <path d="M42 47l43 77 43-77h-26L85 86 68 47z" fill="#0F766E"/>
    <circle cx="42" cy="47" r="12" fill="#1D4ED8"/>
    <circle cx="128" cy="47" r="12" fill="#16A34A"/>
    <circle cx="85" cy="124" r="12" fill="#0F766E"/>
  </g>
  <text x="330" y="214" font-family="Inter,Segoe UI,Arial,sans-serif" font-size="74" font-weight="800" fill="#FFFFFF">VEMO_SKILLS</text>
  <text x="334" y="278" font-family="Inter,Segoe UI,Arial,sans-serif" font-size="30" fill="#DCFCE7">A public, reusable skill hub for agent workflows</text>
  <g font-family="Inter,Segoe UI,Arial,sans-serif" font-size="24" font-weight="700">
    <rect x="334" y="340" width="148" height="50" rx="10" fill="#FFFFFF" opacity="0.96"/>
    <text x="408" y="373" text-anchor="middle" fill="#0F172A">23 skills</text>
    <rect x="502" y="340" width="162" height="50" rx="10" fill="#FFFFFF" opacity="0.96"/>
    <text x="583" y="373" text-anchor="middle" fill="#0F172A">MIT license</text>
    <rect x="684" y="340" width="190" height="50" rx="10" fill="#FFFFFF" opacity="0.96"/>
    <text x="779" y="373" text-anchor="middle" fill="#0F172A">selfcheck 10/10</text>
  </g>
  <text x="334" y="456" font-family="Inter,Segoe UI,Arial,sans-serif" font-size="26" fill="#E0F2FE">Register -> release -> bind -> use by prompt</text>
</svg>
